<?xml version="1.0" encoding="UTF-8"?>
<!DOCTYPE svg PUBLIC "-//W3C//DTD SVG 1.1//EN" "http://www.w3.org/Graphics/SVG/1.1/DTD/svg11.dtd">
<!-- Creator: CorelDRAW -->
<svg xmlns="http://www.w3.org/2000/svg" xml:space="preserve" width="30.5783mm" height="9.027mm" version="1.1" style="shape-rendering:geometricPrecision; text-rendering:geometricPrecision; image-rendering:optimizeQuality; fill-rule:evenodd; clip-rule:evenodd"
viewBox="0 0 712 210.19"
 xmlns:xlink="http://www.w3.org/1999/xlink"
 xmlns:xodm="http://www.corel.com/coreldraw/odm/2003">
 <defs>
  <style type="text/css">
   <![CDATA[
    .fil1 {fill:#999999}
    .fil0 {fill:white}
    .fil3 {fill:#999999;fill-rule:nonzero}
    .fil2 {fill:white;fill-rule:nonzero}
   ]]>
  </style>
 </defs>
 <g id="Layer_x0020_1">
  <metadata id="CorelCorpID_0Corel-Layer"/>
  <g id="_105553188382272">
   <g>
    <polygon class="fil0" points="116.64,0 -0,103.95 24.84,128.25 71.01,86.13 115.02,129.06 140.4,106.92 94.77,62.64 140.4,22.95 "/>
    <polygon class="fil1" points="68.01,126.78 134.34,190.4 112.53,210.19 45.31,147.46 "/>
    <polygon class="fil1" points="158.54,124.77 181.83,147.9 159,168.56 135.87,146.66 "/>
    <polygon class="fil1" points="161.55,43.23 228.3,107.19 206.15,126.84 139.24,62.73 "/>
   </g>
   <g>
    <polygon class="fil2" points="266.88,33.97 266.88,87.54 283.8,87.54 283.8,33.97 306.86,33.97 306.86,21.82 243.81,21.82 243.81,33.97 "/>
    <polygon id="_1" class="fil2" points="315.7,21.82 315.7,87.54 374.12,87.54 374.12,75.39 332.62,75.39 332.62,59.28 369.91,59.28 369.91,48.05 332.62,48.05 332.62,33.97 373.26,33.97 373.26,21.82 "/>
    <polygon id="_2" class="fil2" points="385.54,21.82 385.54,87.54 402.46,87.54 402.46,66.37 412.16,57.99 435.34,87.54 456.57,87.54 423.59,47.78 453.66,21.82 432.53,21.82 402.46,49.07 402.46,21.82 "/>
    <polygon id="_3" class="fil2" points="463.35,21.82 463.35,87.54 521.77,87.54 521.77,75.39 480.28,75.39 480.28,59.28 517.57,59.28 517.57,48.05 480.28,48.05 480.28,33.97 520.91,33.97 520.91,21.82 "/>
    <path id="_4" class="fil2" d="M550.12 75.39l0 -41.42 12.07 0c4.21,0 7.65,0.46 10.56,1.47 2.8,1.01 5.06,2.48 6.79,4.42 1.73,1.93 3.02,4.14 3.77,6.81 0.75,2.67 1.08,5.71 1.08,9.02 0,3.59 -0.54,6.72 -1.62,9.2 -1.08,2.49 -2.48,4.51 -4.31,6.07 -1.83,1.56 -3.88,2.76 -6.14,3.41 -2.26,0.64 -4.63,1.01 -7.11,1.01l-15.09 0zm-16.92 -53.56l0 65.71 33.2 0c5.93,0 10.99,-0.83 15.41,-2.58 4.31,-1.66 7.98,-3.96 10.89,-6.9 2.91,-2.95 5.07,-6.44 6.47,-10.49 1.4,-4.05 2.15,-8.47 2.15,-13.25 0,-5.43 -0.86,-10.22 -2.58,-14.27 -1.83,-4.05 -4.21,-7.46 -7.33,-10.12 -3.12,-2.67 -6.9,-4.69 -11.1,-6.07 -4.31,-1.38 -8.95,-2.02 -13.9,-2.02l-33.2 0z"/>
    <polygon id="_5" class="fil2" points="613.06,21.82 613.06,87.54 629.98,87.54 629.98,21.82 "/>
    <path id="_6" class="fil2" d="M664.25 62.14l10.02 -24.12 0.22 0 9.7 24.12 -19.94 0zm1.62 -40.31l-29.1 65.71 17.03 0 6.04 -14.63 28.77 0 5.82 14.63 17.57 0 -28.78 -65.71 -17.35 0z"/>
    <path class="fil3" d="M278.58 118.69c7.84,0 13.96,1.77 18.26,5.31 4.31,3.54 6.72,7.52 7.15,12.01l-8.1 0c-0.95,-3.39 -2.85,-6.12 -5.6,-8.11 -2.76,-1.99 -6.64,-2.95 -11.63,-2.95 -6.03,0 -10.94,1.77 -14.73,5.45 -3.7,3.68 -5.6,9.29 -5.6,16.8 0,6.19 1.72,11.2 5.09,15.11 3.36,3.83 8.44,5.75 15.07,5.75 6.2,0 10.94,-1.99 14.13,-6.04 1.72,-2.14 3.02,-4.94 3.79,-8.48l8.18 0c-0.69,5.6 -3.1,10.25 -7.24,14 -4.91,4.57 -11.54,6.85 -19.81,6.85 -7.23,0 -13.27,-1.92 -18.09,-5.6 -6.46,-4.94 -9.65,-12.53 -9.65,-22.77 0,-7.81 2.41,-14.22 7.23,-19.16 5.17,-5.45 12.41,-8.18 21.54,-8.18z"/>
    <path id="_1_0" class="fil3" d="M319.6 162.76c0,1.84 0.78,3.32 2.41,4.42 1.55,1.1 3.44,1.62 5.68,1.62 2.67,0 5.17,-0.52 7.67,-1.62 4.22,-1.7 6.38,-4.57 6.38,-8.55l0 -5.23c-0.95,0.51 -2.15,0.88 -3.62,1.25 -1.46,0.37 -2.84,0.59 -4.31,0.74l-4.56 0.52c-2.76,0.3 -4.83,0.74 -6.2,1.47 -2.33,1.11 -3.45,2.87 -3.45,5.38zm18.35 -13.12c1.72,-0.15 2.84,-0.81 3.45,-1.84 0.34,-0.59 0.52,-1.4 0.52,-2.51 0,-2.21 -0.95,-3.83 -2.76,-4.79 -1.81,-1.03 -4.48,-1.47 -7.84,-1.47 -3.96,0 -6.8,0.88 -8.44,2.73 -0.95,0.96 -1.55,2.51 -1.81,4.5l-7.06 0c0.17,-4.79 1.9,-8.11 5.43,-9.95 3.45,-1.84 7.41,-2.8 12.06,-2.8 5.25,0 9.56,0.88 12.83,2.65 3.36,1.69 5,4.35 5,8.03l0 22.18c0,0.66 0.08,1.25 0.43,1.62 0.34,0.44 1.04,0.59 2.07,0.59 0.34,0 0.69,0 1.12,0 0.43,-0.07 0.86,-0.15 1.38,-0.22l0 4.79c-1.21,0.3 -2.07,0.52 -2.76,0.59 -0.6,0.07 -1.46,0.07 -2.5,0.07 -2.59,0 -4.48,-0.81 -5.69,-2.36 -0.61,-0.81 -1.04,-2.06 -1.29,-3.54 -1.55,1.7 -3.79,3.17 -6.63,4.5 -2.93,1.25 -6.12,1.92 -9.57,1.92 -4.14,0 -7.58,-1.11 -10.25,-3.32 -2.67,-2.14 -3.96,-4.86 -3.96,-8.11 0,-3.61 1.29,-6.34 3.87,-8.33 2.67,-1.99 6.03,-3.17 10.34,-3.61l12.06 -1.32z"/>
    <path id="_2_1" class="fil3" d="M380.7 168.65c3.53,0 6.46,-1.25 8.79,-3.83 2.41,-2.51 3.53,-6.27 3.53,-11.35 0,-3.02 -0.52,-5.67 -1.55,-7.88 -1.98,-4.28 -5.51,-6.34 -10.77,-6.34 -5.26,0 -8.79,2.21 -10.77,6.71 -1.03,2.36 -1.55,5.45 -1.55,9.14 0,2.95 0.52,5.53 1.55,7.59 1.98,3.98 5.6,5.97 10.77,5.97zm-19.56 -34.05l7.32 0 0 5.16c1.55,-1.77 3.19,-3.09 5,-4.05 2.5,-1.47 5.51,-2.21 8.96,-2.21 5.08,0 9.47,1.7 13.01,5.01 3.53,3.39 5.34,8.18 5.34,14.37 0,8.4 -2.58,14.37 -7.67,17.98 -3.27,2.28 -7.06,3.46 -11.37,3.46 -3.45,0 -6.29,-0.66 -8.53,-1.92 -1.38,-0.74 -2.85,-1.99 -4.48,-3.76l0 19.68 -7.58 0 0 -53.72z"/>
    <path id="_3_2" class="fil3" d="M409.57 134.61l7.75 0 0 38.4 -7.75 0 0 -38.4zm0 -14.45l7.75 0 0 7.3 -7.75 0 0 -7.3z"/>
    <path id="_4_3" class="fil3" d="M430.26 123.7l7.67 0 0 10.76 7.15 0 0 5.3 -7.15 0 0 25.13c0,1.33 0.52,2.29 1.55,2.73 0.61,0.22 1.64,0.37 3.02,0.37 0.34,0 0.69,0 1.12,0 0.43,0 0.95,-0.07 1.46,-0.07l0 5.09c-0.86,0.22 -1.72,0.37 -2.67,0.44 -0.95,0.15 -1.98,0.15 -3.02,0.15 -3.62,0 -5.94,-0.74 -7.23,-2.28 -1.29,-1.55 -1.9,-3.54 -1.9,-6.04l0 -25.5 -6.12 0 0 -5.3 6.12 0 0 -10.76z"/>
    <path id="_5_4" class="fil3" d="M458.5 162.76c0,1.84 0.78,3.32 2.41,4.42 1.55,1.1 3.45,1.62 5.69,1.62 2.67,0 5.17,-0.52 7.67,-1.62 4.22,-1.7 6.37,-4.57 6.37,-8.55l0 -5.23c-0.95,0.51 -2.15,0.88 -3.62,1.25 -1.46,0.37 -2.85,0.59 -4.31,0.74l-4.56 0.52c-2.76,0.3 -4.83,0.74 -6.2,1.47 -2.33,1.11 -3.45,2.87 -3.45,5.38zm18.35 -13.12c1.72,-0.15 2.84,-0.81 3.45,-1.84 0.34,-0.59 0.52,-1.4 0.52,-2.51 0,-2.21 -0.95,-3.83 -2.76,-4.79 -1.81,-1.03 -4.48,-1.47 -7.84,-1.47 -3.96,0 -6.8,0.88 -8.44,2.73 -0.95,0.96 -1.55,2.51 -1.81,4.5l-7.06 0c0.17,-4.79 1.89,-8.11 5.43,-9.95 3.45,-1.84 7.41,-2.8 12.06,-2.8 5.25,0 9.56,0.88 12.84,2.65 3.36,1.69 5,4.35 5,8.03l0 22.18c0,0.66 0.08,1.25 0.43,1.62 0.34,0.44 1.03,0.59 2.07,0.59 0.34,0 0.69,0 1.12,0 0.43,-0.07 0.86,-0.15 1.38,-0.22l0 4.79c-1.21,0.3 -2.07,0.52 -2.76,0.59 -0.6,0.07 -1.46,0.07 -2.5,0.07 -2.59,0 -4.48,-0.81 -5.69,-2.36 -0.61,-0.81 -1.03,-2.06 -1.29,-3.54 -1.55,1.7 -3.79,3.17 -6.63,4.5 -2.93,1.25 -6.12,1.92 -9.57,1.92 -4.13,0 -7.58,-1.11 -10.25,-3.32 -2.67,-2.14 -3.96,-4.86 -3.96,-8.11 0,-3.61 1.29,-6.34 3.88,-8.33 2.67,-1.99 6.03,-3.17 10.34,-3.61l12.06 -1.32z"/>
    <polygon id="_6_5" class="fil3" points="500.81,120.16 508.39,120.16 508.39,173 500.81,173 "/>
   </g>
  </g>
 </g>
</svg>
