<?xml version="1.0" encoding="UTF-8"?>
<!DOCTYPE svg PUBLIC "-//W3C//DTD SVG 1.1//EN" "http://www.w3.org/Graphics/SVG/1.1/DTD/svg11.dtd">
<!-- Creator: CorelDRAW -->
<svg xmlns="http://www.w3.org/2000/svg" xml:space="preserve" width="164.774mm" height="34.1292mm" version="1.1" style="shape-rendering:geometricPrecision; text-rendering:geometricPrecision; image-rendering:optimizeQuality; fill-rule:evenodd; clip-rule:evenodd"
viewBox="0 0 16049.81 3324.36"
 xmlns:xlink="http://www.w3.org/1999/xlink"
 xmlns:xodm="http://www.corel.com/coreldraw/odm/2003">
 <defs>
  <style type="text/css">
   <![CDATA[
    .fil0 {fill:#E8360E}
    .fil1 {fill:#F7B716}
    .fil2 {fill:#1F8758;fill-rule:nonzero}
    .fil3 {fill:white;fill-rule:nonzero}
   ]]>
  </style>
 </defs>
 <g id="Layer_x0020_1">
  <metadata id="CorelCorpID_0Corel-Layer"/>
  <g id="_105553116981120">
   <g>
    <path class="fil0" d="M7801.54 734.47c-82.56,187.22 149.96,615.19 -620.76,845.55 -177.26,52.98 -366.81,129.05 -556.38,177.92 -102.3,26.38 -173.26,65.6 -239.47,117.16 -38.1,29.67 -68.96,56.27 -104.23,84.9 -6.86,5.56 -47.91,40.97 -51.24,42.94 -57.89,34.13 -17.58,23.69 -41.47,3.52 -57.89,-62.32 -18.52,-573 0.33,-686.31 30.84,-185.49 70.93,-428.56 137.63,-594.58 125.4,-312.1 416.74,-611.32 855.21,-606.9 -40.83,-63.74 30.18,-14.62 -171.25,-77.16 -59.21,-18.38 -133.57,-36.47 -204.52,-39.87 -1256.62,-60.18 -1713.83,1565.26 -626.76,2168.31 510.18,283.02 1098.37,137.53 1448.27,-274.81 252.22,-297.22 307.08,-580.95 253.78,-976.05 -16.86,-125 -13.46,-107.46 -79.13,-184.6z"/>
    <path class="fil1" d="M7801.54 734.47c-29.85,-126.34 -147.34,-305.89 -229.88,-389.95 -56.4,-57.43 -96.86,-96.18 -165.42,-135.36 -56.74,-32.43 -150.25,-91 -225.08,-90.5 -438.47,-4.41 -729.81,294.81 -855.21,606.9 -66.7,166.02 -106.8,409.09 -137.63,594.58 -18.85,113.31 -58.22,623.99 -0.33,686.31 23.88,20.17 -16.42,30.61 41.47,-3.52 3.33,-1.97 44.39,-37.37 51.24,-42.94 35.27,-28.63 66.14,-55.23 104.23,-84.9 66.21,-51.56 137.17,-90.78 239.47,-117.16 189.57,-48.87 379.12,-124.94 556.38,-177.92 770.72,-230.35 538.2,-658.32 620.76,-845.55z"/>
   </g>
   <path class="fil2" d="M1104.67 725.61c0,-101.84 -24.77,-176.16 -79.82,-220.19 -55.05,-44.05 -129.36,-66.06 -228.45,-66.06l-385.35 0 0 583.53 385.35 0c99.09,0 173.4,-22.02 228.45,-71.56 55.05,-46.79 79.82,-121.11 79.82,-225.71zm410.12 -2.75c0,233.96 -57.81,399.11 -176.17,495.44 -118.36,99.09 -286.25,145.88 -506.46,145.88l-421.13 0 0 712.9 -410.11 0 0 -1981.8 861.53 0c198.18,0 357.82,52.3 476.18,154.14 118.36,101.84 176.17,261.48 176.17,473.43z"/>
   <polygon id="_1" class="fil2" points="1823.08,2077.09 1823.08,95.29 2233.19,95.29 2233.19,852.23 3006.65,852.23 3006.65,95.29 3419.52,95.29 3419.52,2077.09 3006.65,2077.09 3006.65,1193.54 2233.19,1193.54 2233.19,2077.09 "/>
   <path id="_2" class="fil2" d="M4229.21 439.36l0 533.99 467.92 0c93.59,0 162.39,-11.02 209.19,-33.03 82.58,-38.54 123.86,-112.85 123.86,-222.96 0,-121.1 -38.53,-200.93 -118.36,-242.22 -46.78,-22.01 -112.84,-35.78 -203.68,-35.78l-478.93 0zm567.02 -344.06c137.62,2.76 244.97,19.27 319.29,52.3 74.31,30.27 137.62,77.07 189.92,137.62 44.04,49.55 77.07,107.35 101.84,167.91 24.77,60.55 38.53,129.36 38.53,206.43 0,96.34 -24.77,187.17 -71.56,278 -46.79,90.83 -126.62,156.89 -233.96,192.68 90.83,38.53 154.13,90.83 192.67,156.89 38.54,68.82 57.81,170.65 57.81,311.03l0 132.12c0,90.83 2.75,151.39 11.01,184.42 11.01,49.54 35.79,88.07 74.32,112.85l0 49.54 -454.16 0c-13.76,-44.04 -22.02,-79.82 -27.53,-107.35 -11.01,-55.04 -16.52,-110.1 -16.52,-170.65l-2.75 -181.66c-2.76,-126.62 -24.77,-211.94 -71.56,-253.23 -44.05,-44.04 -126.62,-63.3 -247.73,-63.3l-426.63 0 0 776.2 -404.61 0 0 -1981.8 971.63 0z"/>
   <polygon id="_3" class="fil2" points="8090.05,95.29 8522.19,95.29 9312.15,1479.8 9312.15,95.29 9697.51,95.29 9697.51,2077.09 9284.64,2077.09 8475.4,670.57 8475.4,2077.09 8090.05,2077.09 "/>
   <polygon id="_4" class="fil2" points="11547.64,447.61 10501.7,447.61 10501.7,868.74 11462.32,868.74 11462.32,1212.8 10501.7,1212.8 10501.7,1722.02 11597.18,1722.02 11597.18,2077.09 10097.07,2077.09 10097.07,95.29 11547.64,95.29 "/>
   <path id="_5" class="fil2" d="M12219.25 1466.04c13.76,90.83 38.53,156.89 74.31,203.68 66.06,79.82 181.67,121.1 344.06,121.1 99.09,0 178.91,-11.01 239.47,-33.03 115.6,-41.28 173.4,-118.36 173.4,-228.45 0,-66.06 -30.27,-115.6 -85.33,-151.39 -57.8,-35.78 -148.63,-66.06 -272.49,-93.59l-209.19 -46.79c-206.44,-46.78 -346.82,-96.33 -426.64,-151.39 -134.87,-93.58 -200.93,-233.96 -200.93,-429.38 0,-178.91 66.06,-324.8 195.42,-443.15 126.62,-115.6 316.54,-176.16 567.02,-176.16 209.19,0 388.1,55.04 533.99,167.9 148.63,110.11 225.71,269.74 231.21,481.69l-396.36 0c-8.26,-121.11 -60.56,-203.68 -156.89,-255.98 -63.31,-33.03 -143.13,-49.55 -239.47,-49.55 -107.34,0 -192.67,22.02 -255.98,66.06 -63.3,41.29 -96.33,101.85 -96.33,178.91 0,71.56 33.03,123.86 96.33,159.65 38.53,22.02 123.86,49.55 255.98,82.57l341.31 79.82c151.39,35.79 264.24,85.33 338.56,145.88 118.36,90.83 178.91,225.71 178.91,404.62 0,178.91 -68.82,330.3 -209.19,448.66 -137.63,121.1 -333.06,181.66 -586.28,181.66 -255.98,0 -459.67,-60.56 -608.31,-178.91 -148.63,-115.6 -220.2,-278 -220.2,-484.44l393.61 0z"/>
   <polygon id="_6" class="fil2" points="14134.99,2077.09 13722.11,2077.09 13722.11,95.29 14134.99,95.29 "/>
   <path id="_7" class="fil2" d="M14819.9 1466.04c13.76,90.83 38.53,156.89 74.31,203.68 66.06,79.82 181.67,121.1 344.06,121.1 99.09,0 178.91,-11.01 239.47,-33.03 115.6,-41.28 173.4,-118.36 173.4,-228.45 0,-66.06 -30.27,-115.6 -85.33,-151.39 -57.8,-35.78 -148.63,-66.06 -272.49,-93.59l-209.19 -46.79c-206.44,-46.78 -346.82,-96.33 -426.64,-151.39 -134.87,-93.58 -200.93,-233.96 -200.93,-429.38 0,-178.91 66.06,-324.8 195.42,-443.15 126.62,-115.6 316.54,-176.16 567.02,-176.16 209.19,0 388.1,55.04 533.99,167.9 148.63,110.11 225.71,269.74 231.21,481.69l-396.36 0c-8.26,-121.11 -60.56,-203.68 -156.89,-255.98 -63.31,-33.03 -143.13,-49.55 -239.47,-49.55 -107.34,0 -192.67,22.02 -255.98,66.06 -63.3,41.29 -96.33,101.85 -96.33,178.91 0,71.56 33.03,123.86 96.33,159.65 38.53,22.02 123.86,49.55 255.98,82.57l341.31 79.82c151.39,35.79 264.24,85.33 338.56,145.88 118.36,90.83 178.91,225.71 178.91,404.62 0,178.91 -68.82,330.3 -209.19,448.66 -137.63,121.1 -333.06,181.66 -586.28,181.66 -255.98,0 -459.67,-60.56 -608.31,-178.91 -148.63,-115.6 -220.2,-278 -220.2,-484.44l393.61 0z"/>
   <path class="fil3" d="M8293.54 2699.24c103.92,0 181.44,33.82 231.75,100.62 39.59,52.77 58.55,119.58 58.55,201.23 0,88.24 -22.27,161.63 -66.8,220.19 -52.77,68.45 -127.82,103.08 -225.14,103.08 -91.54,0 -162.46,-29.69 -214.42,-89.9 -47.01,-58.55 -70.1,-131.95 -70.1,-220.19 0,-79.99 19.79,-148.45 59.38,-205.35 51.13,-73.39 127.01,-109.69 226.79,-109.69zm8.25 553.38c70.1,0 121.23,-25.57 152.58,-75.87 32.16,-50.31 47.83,-108.86 47.83,-174.84 0,-69.27 -18.14,-125.35 -54.43,-167.41 -37.11,-42.89 -86.59,-63.51 -149.27,-63.51 -61.85,0 -111.33,20.62 -150.09,62.68 -38.76,42.06 -57.73,103.91 -57.73,185.56 0,65.98 16.5,121.23 49.48,165.76 32.99,45.36 86.59,67.63 161.64,67.63z"/>
   <path id="_1_0" class="fil3" d="M8669.47 2877.37l74.22 0 0 429.67 -74.22 0 0 -429.67zm0 -161.63l74.22 0 0 81.65 -74.22 0 0 -81.65z"/>
   <polygon id="_2_1" class="fil3" points="8855.17,2715.74 8927.73,2715.74 8927.73,3307.04 8855.17,3307.04 "/>
   <path id="_3_2" class="fil3" d="M9448.12 2945.83c25.56,-18.15 42.88,-32.99 52.77,-44.53 15.67,-18.15 23.09,-37.94 23.09,-60.21 0,-18.15 -5.78,-32.99 -17.32,-45.36 -11.54,-12.37 -26.39,-18.96 -46.18,-18.96 -29.69,0 -50.31,9.9 -61.85,29.69 -6.6,9.9 -9.08,21.44 -9.08,33.81 0,15.67 4.13,31.35 13.2,47.01 9.07,14.85 23.91,34.65 45.36,58.56zm-18.97 310.91c29.69,0 55.26,-6.59 76.7,-19.79 21.45,-14.02 38.77,-29.69 50.31,-46.18l-134.43 -163.29c-37.93,25.57 -61.85,44.53 -73.39,57.73 -18.15,20.61 -27.22,45.35 -27.22,74.22 0,31.34 11.54,55.25 34.64,72.57 23.09,16.5 47.84,24.74 73.39,24.74zm-47.01 -278.74c-25.56,-28.86 -42.06,-52.78 -50.3,-72.58 -8.25,-19.79 -13.2,-38.76 -13.2,-56.9 0,-37.94 13.2,-69.27 38.76,-94.84 26.4,-24.74 60.21,-37.11 103.91,-37.11 41.24,0 72.58,11.55 95.67,34.64 23.09,23.09 34.64,51.14 34.64,84.12 0,37.94 -11.55,70.93 -35.47,98.97 -14.02,17.32 -37.11,36.28 -70.1,57.72l108.04 128.65c7.42,-21.44 12.37,-37.11 14.84,-47.83 3.29,-10.72 5.77,-25.57 9.07,-44.53l68.46 0c-4.13,37.93 -13.2,74.22 -27.22,108.86 -14.03,34.64 -20.62,48.65 -20.62,42.06l105.56 127.82 -94.02 0 -55.26 -67.63c-22.27,23.92 -42.06,41.24 -60.2,51.96 -32.16,19.79 -69.27,29.69 -110.52,29.69 -61.85,0 -106.39,-16.49 -134.42,-50.3 -28.04,-32.99 -42.06,-70.1 -42.06,-112.16 0,-44.53 14.02,-81.65 41.23,-112.16 16.49,-18.14 47.84,-41.23 93.19,-68.45z"/>
   <path id="_4_3" class="fil3" d="M10309.79 2700.06c56.09,0 103.92,10.72 144.33,32.16 58.56,31.34 94.84,84.95 108.04,162.46l-79.17 0c-9.9,-42.88 -29.69,-75.04 -60.21,-94.83 -30.52,-18.97 -68.46,-28.87 -114.64,-28.87 -55.26,0 -101.44,20.62 -138.55,61.03 -37.11,41.23 -56.08,102.27 -56.08,183.91 0,70.09 15.66,127.82 46.18,171.53 31.34,44.53 81.65,66.8 150.92,66.8 53.6,0 98.15,-15.66 132.78,-47.01 35.46,-30.51 52.77,-80.82 53.6,-150.09l-184.74 0 0 -66.8 259.79 0 0 316.68 -51.96 0 -18.97 -75.87c-27.22,29.69 -51.13,50.3 -72.57,61.85 -34.65,19.79 -80,29.69 -133.61,29.69 -70.09,0 -130.3,-22.27 -181.43,-67.63 -54.43,-56.9 -82.47,-135.25 -82.47,-235.04 0,-98.96 27.22,-177.32 80.82,-235.87 51.14,-56.08 117.11,-84.12 197.93,-84.12z"/>
   <path id="_5_4" class="fil3" d="M10741.8 3192.41c0,20.62 7.42,37.11 23.09,49.48 14.84,12.37 32.98,18.15 54.43,18.15 25.56,0 49.48,-5.78 73.39,-18.15 40.41,-18.96 61.02,-51.13 61.02,-95.66l0 -58.55c-9.07,5.77 -20.61,9.9 -34.64,14.02 -14.02,4.12 -27.22,6.59 -41.23,8.25l-43.71 5.77c-26.4,3.3 -46.19,8.25 -59.38,16.5 -22.27,12.37 -32.99,32.16 -32.99,60.2zm175.66 -146.79c16.49,-1.66 27.22,-9.08 32.99,-20.62 3.29,-6.59 4.95,-15.67 4.95,-28.04 0,-24.74 -9.08,-42.88 -26.4,-53.6 -17.32,-11.54 -42.88,-16.49 -75.04,-16.49 -37.94,0 -65.15,9.9 -80.83,30.51 -9.07,10.72 -14.84,28.04 -17.32,50.31l-67.62 0c1.65,-53.6 18.14,-90.71 51.96,-111.33 32.98,-20.62 70.92,-31.35 115.45,-31.35 50.31,0 91.54,9.9 122.88,29.69 32.16,18.97 47.84,48.66 47.84,89.9l0 248.24c0,7.42 0.83,14.02 4.12,18.15 3.3,4.95 9.9,6.59 19.8,6.59 3.29,0 6.59,0 10.71,0 4.13,-0.83 8.25,-1.65 13.2,-2.47l0 53.6c-11.54,3.3 -19.79,5.78 -26.39,6.6 -5.78,0.82 -14.03,0.82 -23.92,0.82 -24.74,0 -42.89,-9.07 -54.43,-26.39 -5.78,-9.07 -9.9,-23.09 -12.37,-39.59 -14.84,18.96 -36.28,35.47 -63.5,50.31 -28.04,14.02 -58.56,21.44 -91.54,21.44 -39.59,0 -72.58,-12.37 -98.15,-37.11 -25.56,-23.91 -37.93,-54.43 -37.93,-90.71 0,-40.41 12.37,-70.93 37.11,-93.2 25.56,-22.27 57.72,-35.46 98.96,-40.4l115.45 -14.84z"/>
   <path id="_6_5" class="fil3" d="M11188.1 3171.8c1.65,23.91 8.25,42.88 18.15,55.25 18.14,23.92 49.48,35.47 94.83,35.47 26.4,0 50.31,-5.78 70.93,-17.32 20.61,-12.37 30.51,-29.69 30.51,-54.43 0,-18.96 -8.24,-32.99 -24.74,-42.06 -10.71,-6.59 -31.34,-13.2 -61.85,-20.62l-57.72 -14.84c-36.29,-9.07 -63.51,-18.96 -80.83,-30.51 -31.34,-19.79 -47.01,-47.01 -47.01,-81.65 0,-40.41 14.84,-73.4 43.72,-98.96 29.69,-24.75 69.27,-37.94 118.76,-37.94 65.14,0 112.15,18.96 141.02,57.73 17.32,23.91 26.39,50.3 25.56,77.52l-68.45 0c-0.83,-15.66 -6.59,-30.51 -17.32,-44.53 -16.49,-18.96 -45.36,-28.03 -86.59,-28.03 -27.22,0 -47.84,4.95 -61.85,15.66 -14.02,9.9 -21.44,23.92 -21.44,41.24 0,18.96 9.07,33.81 28.03,45.35 10.72,6.6 26.4,12.37 47.84,17.32l47.84 11.55c51.96,13.19 86.59,24.74 104.73,37.11 28.04,18.14 42.06,47.01 42.06,87.41 0,37.94 -14.84,70.93 -43.71,98.96 -28.86,28.04 -73.39,42.06 -132.77,42.06 -64.33,0 -109.69,-14.84 -136.9,-43.71 -26.39,-28.86 -40.41,-65.15 -42.89,-108.03l70.1 0z"/>
   <polygon id="_7_6" class="fil3" points="12211.84,2715.74 12211.84,2785.83 12012.26,2785.83 12012.26,3307.04 11931.44,3307.04 11931.44,2785.83 11731.87,2785.83 11731.87,2715.74 "/>
   <path id="_8" class="fil3" d="M12363.59 2865.83c30.52,0 60.21,7.42 89.07,21.44 28.86,14.85 50.31,32.99 65.97,56.09 14.03,21.44 23.92,47.01 28.87,75.87 4.12,19.79 6.59,51.96 6.59,95.67l-316.68 0c1.65,43.71 12.37,78.34 31.34,104.73 18.97,26.4 49.48,39.59 89.9,39.59 37.94,0 67.63,-12.37 90.71,-37.11 12.37,-14.84 21.45,-31.34 27.22,-50.3l70.93 0c-1.65,15.66 -7.42,33.81 -18.15,52.77 -10.72,19.79 -23.09,35.47 -36.28,47.84 -21.45,21.44 -48.66,36.28 -81.65,43.71 -17.32,4.13 -37.11,6.6 -58.56,6.6 -54.43,0 -99.78,-19.79 -136.89,-58.56 -37.11,-39.59 -56.09,-94.02 -56.09,-164.11 0,-69.27 18.97,-126.18 56.9,-169.07 37.11,-42.89 86.59,-65.15 146.8,-65.15zm115.45 191.33c-2.47,-31.34 -9.9,-56.9 -20.61,-75.87 -19.79,-34.64 -52.78,-51.96 -98.96,-51.96 -33.82,0 -61.03,12.37 -84.12,36.28 -22.27,23.91 -34.64,54.43 -35.47,91.54l239.16 0z"/>
   <polygon id="_9" class="fil3" points="12641.65,2715.74 12710.92,2715.74 12710.92,3058.81 12897.31,2875.72 12989.67,2875.72 12824.73,3037.37 12998.75,3307.04 12906.38,3307.04 12771.95,3089.32 12710.92,3145.4 12710.92,3307.04 12641.65,3307.04 "/>
   <polygon id="_10" class="fil3" points="13293.86,2715.74 13373.84,2715.74 13373.84,3236.94 13674.04,3236.94 13674.04,3307.04 13293.86,3307.04 "/>
   <path id="_11" class="fil3" d="M13742.63 2877.37l74.22 0 0 429.67 -74.22 0 0 -429.67zm0 -161.63l74.22 0 0 81.65 -74.22 0 0 -81.65z"/>
   <path id="_12" class="fil3" d="M13925.85 2875.72l71.75 0 0 61.03c17.32,-20.62 32.98,-36.29 47.01,-46.19 23.91,-16.49 51.13,-24.74 81.65,-24.74 33.81,0 61.85,9.07 82.46,25.57 12.37,9.9 23.09,23.91 32.16,42.89 16.5,-23.09 35.47,-40.41 56.91,-51.14 22.27,-11.54 46.18,-17.32 73.39,-17.32 57.73,0 97.32,21.44 118.76,63.51 10.72,22.27 16.49,52.77 16.49,90.71l0 286.99 -75.04 0 0 -299.37c0,-28.86 -7.42,-48.65 -21.45,-59.38 -14.84,-10.72 -32.16,-16.49 -52.77,-16.49 -28.87,0 -52.78,9.9 -73.4,28.86 -20.62,18.96 -31.34,51.13 -31.34,95.66l0 250.71 -73.4 0 0 -281.22c0,-29.69 -3.29,-51.14 -10.71,-64.33 -10.72,-19.79 -31.35,-30.52 -61.03,-30.52 -28.03,0 -52.77,10.72 -75.04,32.16 -22.27,21.44 -33.82,59.38 -33.82,115.45l0 228.44 -72.57 0 0 -431.32z"/>
   <path id="_13" class="fil3" d="M14612.83 2877.37l74.22 0 0 429.67 -74.22 0 0 -429.67zm0 -161.63l74.22 0 0 81.65 -74.22 0 0 -81.65z"/>
   <path id="_14" class="fil3" d="M14810.89 2755.32l73.39 0 0 120.4 68.45 0 0 59.38 -68.45 0 0 281.23c0,14.84 4.95,25.56 14.84,30.51 5.78,2.47 15.67,4.13 28.86,4.13 3.3,0 6.6,0 10.72,0 4.12,0 9.07,-0.83 14.02,-0.83l0 56.9c-8.24,2.47 -16.49,4.12 -25.56,4.95 -9.08,1.65 -18.97,1.65 -28.87,1.65 -34.64,0 -56.9,-8.24 -69.27,-25.56 -12.37,-17.32 -18.14,-39.59 -18.14,-67.63l0 -285.35 -58.56 0 0 -59.38 58.56 0 0 -120.4z"/>
   <path id="_15" class="fil3" d="M15204.96 2865.83c30.52,0 60.21,7.42 89.07,21.44 28.86,14.85 50.31,32.99 65.97,56.09 14.03,21.44 23.92,47.01 28.87,75.87 4.12,19.79 6.59,51.96 6.59,95.67l-316.68 0c1.65,43.71 12.37,78.34 31.34,104.73 18.97,26.4 49.48,39.59 89.9,39.59 37.94,0 67.63,-12.37 90.71,-37.11 12.37,-14.84 21.45,-31.34 27.22,-50.3l70.93 0c-1.65,15.66 -7.42,33.81 -18.15,52.77 -10.72,19.79 -23.09,35.47 -36.28,47.84 -21.45,21.44 -48.66,36.28 -81.65,43.71 -17.32,4.13 -37.11,6.6 -58.56,6.6 -54.43,0 -99.78,-19.79 -136.89,-58.56 -37.11,-39.59 -56.09,-94.02 -56.09,-164.11 0,-69.27 18.97,-126.18 56.9,-169.07 37.11,-42.89 86.59,-65.15 146.8,-65.15zm115.45 191.33c-2.47,-31.34 -9.9,-56.9 -20.61,-75.87 -19.79,-34.64 -52.78,-51.96 -98.96,-51.96 -33.82,0 -61.03,12.37 -84.12,36.28 -22.27,23.91 -34.64,54.43 -35.47,91.54l239.16 0z"/>
   <path id="_16" class="fil3" d="M15530.03 3096.75c0,46.18 9.9,84.12 29.69,115.45 19.79,31.35 51.13,47.01 94.02,47.01 33.81,0 61.02,-14.84 82.47,-43.71 22.27,-28.86 32.98,-70.1 32.98,-123.7 0,-54.43 -11.54,-94.84 -33.81,-121.23 -22.27,-26.39 -49.48,-39.59 -82.47,-39.59 -36.28,0 -65.97,14.02 -89.07,42.06 -22.27,28.04 -33.81,69.27 -33.81,123.7zm108.86 -228.44c32.99,0 61.02,6.59 83.29,20.62 13.2,8.25 27.22,22.27 43.72,42.06l0 -217.72 70.09 0 0 593.78 -65.14 0 0 -60.21c-17.32,26.4 -37.11,46.19 -60.21,57.73 -23.09,11.54 -49.48,18.15 -79.17,18.15 -48.65,0 -89.9,-20.62 -125.35,-61.03 -34.64,-40.4 -52.78,-94.02 -52.78,-160.82 0,-63.5 16.49,-117.93 48.65,-163.29 32.16,-46.18 77.52,-69.27 136.9,-69.27z"/>
  </g>
 </g>
</svg>
